<?xml version="1.0" encoding="utf-8"?>
<!-- Generator: Adobe Illustrator 14.0.0, SVG Export Plug-In . SVG Version: 6.00 Build 43363)  -->
<!DOCTYPE svg PUBLIC "-//W3C//DTD SVG 1.1//EN" "http://www.w3.org/Graphics/SVG/1.1/DTD/svg11.dtd">
<svg version="1.1" xmlns="http://www.w3.org/2000/svg" xmlns:xlink="http://www.w3.org/1999/xlink" x="0px" y="0px" width="450px"
	 height="150px" viewBox="0 0 450 150" enable-background="new 0 0 450 150" xml:space="preserve">
<g id="frenc" display="none">
</g>
<g id="english">
	
		<text transform="matrix(1 0 0 1 67.0308 127.0918)" fill="#00FFFF" stroke="#00FFFF" stroke-width="0.5" font-family="'Apercu-Bold'" font-size="20.8" letter-spacing="4">POWERED BY 21 SWINGS</text>
</g>
<g id="Layer_2">
	<path fill="#00FFFF" d="M92.564,55.35c1.303,0.838,2.092,2.326,2.092,3.953c0,1.395-0.558,2.789-1.488,3.672
		c-1.023,0.932-1.767,1.163-3.999,1.163H77.36c-3.069,0-4.976-1.813-4.976-4.696c0-1.58,0.419-2.511,1.86-4.045l9.207-9.903
		c0.744-0.792,0.929-1.117,0.929-1.628c0-0.744-0.603-1.303-1.348-1.303c-0.465,0-0.93,0.234-1.163,0.652l-0.836,1.348
		c-0.698,1.07-2.278,1.859-3.766,1.859c-2.837,0-5.162-2.277-5.162-5.021c0-4.604,5.3-9.02,10.881-9.02
		c6.509,0,11.624,5.161,11.624,11.717c0,3.766-1.395,6.23-5.952,10.462C90.657,54.512,91.541,54.699,92.564,55.35"/>
	<path fill="#00FFFF" d="M97.541,37.867c0-1.535,0.65-2.883,1.906-3.767c1.023-0.743,1.86-0.976,3.813-0.976h1.534
		c2.278,0,3.301,0.324,4.417,1.301c1.302,1.163,1.674,2.232,1.674,4.789V58.65c0,3.35-2.092,5.72-5.067,5.72
		c-1.489,0-3.023-0.743-4-1.906c-0.836-1.022-1.162-2.093-1.162-3.813V42.424C98.517,41.494,97.541,40.053,97.541,37.867"/>
	<path fill="#00FFFF" d="M145.664,32.381c9.068,0,16.369,7.253,16.369,16.227c0,8.975-7.348,16.32-16.321,16.32
		c-9.114,0-16.367-7.299-16.367-16.46C129.345,39.541,136.598,32.381,145.664,32.381 M145.712,54.792
		c3.349,0,6.091-2.79,6.091-6.138c0-3.301-2.742-5.998-6.091-5.998c-3.348,0-6.092,2.65-6.092,5.951
		C139.62,52.002,142.364,54.792,145.712,54.792"/>
	<path fill="#00FFFF" d="M190.396,54.932c0,2.697-1.068,5.068-3.115,6.928c-1.998,1.861-3.44,2.278-7.438,2.278h-8.138
		c-2.231,0-3.254-0.325-4.371-1.534c-0.604-0.651-1.068-1.58-1.254-2.418c-0.047-0.372-0.094-0.744-0.094-2.742V39.866v-1.487
		c0.047-3.069,2.232-5.254,5.254-5.254h4.371c3.301,0,4.417,0.092,5.672,0.371c4.277,1.023,7.16,4.742,7.16,9.3
		c0,1.767-0.324,2.836-1.439,4.742C189.468,49.91,190.396,51.955,190.396,54.932 M176.17,45.121h1.209
		c1.44,0,1.906-0.326,1.906-1.162c0-0.885-0.559-1.21-2-1.21h-1.115V45.121z M176.17,54.605h1.721c1.767,0,2.23-0.279,2.23-1.209
		s-0.65-1.301-2.279-1.301h-1.672V54.605z"/>
	<path fill="#00FFFF" d="M193.122,57.07c0-2.604,2.045-4.649,4.649-4.649c1.256,0,2.324,0.419,3.628,1.487
		c2.231,1.721,2.51,1.907,3.255,1.907c0.79,0,1.301-0.559,1.301-1.349c0-0.559-0.232-0.93-0.791-1.302
		c-0.277-0.186-0.417-0.279-2.045-0.884c-0.837-0.278-1.674-0.559-2.512-0.885c-4.51-1.58-6.741-4.51-6.741-8.834
		c0-6.043,4.649-10.182,11.392-10.182c5.58,0,9.95,2.975,9.95,6.787c0,2.465-1.674,4.231-3.998,4.231
		c-1.396,0-2.512-0.464-4.231-1.767c-1.07-0.883-1.581-1.115-2.139-1.115c-0.651,0-1.209,0.559-1.209,1.209
		c0,0.93,0.65,1.348,3.068,2.139c2.65,0.791,5.161,2.045,6.602,3.256c1.907,1.579,3.117,4.369,3.117,7.299
		c0,2.791-1.07,5.486-2.93,7.394c-2.093,2.093-4.883,3.114-8.695,3.114C198.189,64.928,193.122,61.488,193.122,57.07"/>
	<path fill="#00FFFF" d="M223.326,42.656c-1.766,0-2.93-0.418-3.859-1.349c-0.93-0.977-1.441-2.14-1.441-3.394
		c0-1.768,1.162-3.627,2.65-4.278c1.07-0.465,1.488-0.511,5.533-0.511h10.322c2.884,0,2.884,0,3.488,0.092
		c2.465,0.325,4.185,2.232,4.185,4.65c0,1.348-0.651,2.743-1.675,3.674c-0.791,0.743-2.092,1.115-3.952,1.115h-2.278v15.438
		c0,1.859-0.232,2.883-0.883,3.951c-0.93,1.488-2.465,2.325-4.231,2.325c-1.722,0-3.255-0.79-4.231-2.138
		c-0.697-1.07-0.883-1.954-0.883-4.047V42.656H223.326z"/>
	<path fill="#00FFFF" d="M246.917,64.37c-2.837,0-5.069-2.231-5.069-5.114c0-0.883,0.232-1.813,0.652-2.696l9.718-20.599
		c0.884-1.906,2.649-3.07,4.696-3.07c2.092,0,3.859,1.164,4.789,3.116l9.764,20.831c0.42,0.79,0.605,1.674,0.605,2.465
		c0,2.789-2.325,5.067-5.161,5.067c-2.372,0-3.767-1.116-5.208-4.278h-9.485C250.916,63.115,249.381,64.37,246.917,64.37
		 M258.495,52.699l-1.581-3.719l-1.582,3.719H258.495z"/>
	<path fill="#00FFFF" d="M300.443,60.836c-3.021,2.604-6.881,4.093-10.835,4.093c-9.066,0-16.413-7.255-16.413-16.228
		c0-9.021,7.393-16.32,16.46-16.32c3.767,0,7.394,1.301,10.369,3.766c2.511,1.999,3.766,4.092,3.766,6.137
		c0,2.791-2.278,5.115-5.114,5.115c-1.209,0-2.511-0.512-3.207-1.255l-1.489-1.628c-1.115-1.209-2.742-1.859-4.417-1.859
		c-3.395,0-6.092,2.65-6.092,6.045c0,3.348,2.697,6.044,6.045,6.044c1.674,0,3.349-0.743,4.557-2.046l1.07-1.115
		c0.837-0.884,2.231-1.488,3.533-1.488c2.697,0,5.114,2.371,5.114,5.021C303.79,56.977,302.629,58.931,300.443,60.836"/>
	<path fill="#00FFFF" d="M322.623,54.56c1.721,0,2.697,0.278,3.627,0.931c1.209,0.883,1.953,2.324,1.953,3.813
		c0,1.349-0.605,2.789-1.581,3.674c-0.93,0.836-2,1.16-3.767,1.16h-9.764c-2.047,0-3.395-0.51-4.324-1.626
		c-1.256-1.395-1.396-2.093-1.396-6.37V38.658c0-3.488,2-5.768,5.067-5.768c1.582,0,3.116,0.746,3.999,1.861
		c0.931,1.255,1.162,2.186,1.162,5.114V54.56H322.623z"/>
	<path fill="#00FFFF" d="M346.385,54.56c2.23,0,3.207,0.278,4.277,1.162c1.07,0.931,1.674,2.231,1.674,3.626
		c0,1.443-0.652,2.837-1.674,3.721c-1.022,0.838-1.907,1.068-4.231,1.068h-7.951c-2.372,0-3.022-0.092-3.905-0.416
		c-1.582-0.652-2.604-1.907-2.93-3.721c-0.139-0.652-0.186-0.93-0.186-3.069V40.099c0-2.604,0.047-2.929,0.465-3.905
		c0.417-1.163,1.395-2.092,2.463-2.557c1.163-0.466,1.396-0.512,4.418-0.512h6.139c2.928,0,3.207,0.046,3.905,0.231
		c2.139,0.558,3.534,2.325,3.534,4.464c0,1.488-0.604,2.883-1.676,3.766c-0.929,0.791-1.999,1.116-3.904,1.116h-5.115v2.14h4.045
		c2.512,0,4.14,1.488,4.14,3.673c0,1.163-0.512,2.231-1.351,2.929c-0.789,0.605-1.533,0.791-3.16,0.791h-3.674v2.325H346.385z"/>
	<path fill="#00FFFF" d="M355.08,57.07c0-2.604,2.045-4.649,4.648-4.649c1.256,0,2.326,0.419,3.628,1.487
		c2.23,1.721,2.511,1.907,3.255,1.907c0.789,0,1.301-0.559,1.301-1.349c0-0.559-0.232-0.93-0.789-1.302
		c-0.279-0.186-0.42-0.279-2.047-0.884c-0.836-0.278-1.674-0.559-2.511-0.885c-4.511-1.58-6.742-4.51-6.742-8.834
		c0-6.043,4.649-10.182,11.393-10.182c5.579,0,9.95,2.975,9.95,6.787c0,2.465-1.674,4.231-4,4.231c-1.395,0-2.51-0.464-4.23-1.767
		c-1.07-0.883-1.581-1.115-2.139-1.115c-0.65,0-1.21,0.559-1.21,1.209c0,0.93,0.651,1.348,3.07,2.139
		c2.65,0.791,5.16,2.045,6.603,3.256c1.906,1.579,3.115,4.369,3.115,7.299c0,2.791-1.07,5.486-2.93,7.394
		c-2.092,2.093-4.883,3.114-8.695,3.114C360.147,64.928,355.08,61.488,355.08,57.07"/>
</g>
</svg>
