<?xml version="1.0" encoding="utf-8"?>
<!-- Generator: Adobe Illustrator 14.0.0, SVG Export Plug-In . SVG Version: 6.00 Build 43363)  -->
<!DOCTYPE svg PUBLIC "-//W3C//DTD SVG 1.1//EN" "http://www.w3.org/Graphics/SVG/1.1/DTD/svg11.dtd">
<svg version="1.1" id="Layer_1" xmlns="http://www.w3.org/2000/svg" xmlns:xlink="http://www.w3.org/1999/xlink" x="0px" y="0px"
	 width="200px" height="110px" viewBox="0 0 200 110" enable-background="new 0 0 200 110" xml:space="preserve">
<path d="M25.143,78.544c0.401-0.067,0.323-1.045,0.244-1.53c-1.662-10.146-3.035-18.521-4.774-29.149
	c-0.21-1.286,0.166-1.516,2.5-1.897c1.854-0.306,2.345-0.302,2.53,0.826c3.168,19.323,5.32,32.45,8.5,51.857
	c0.476,2.897,0.459,3.313-1.472,3.63c-1.208,0.198-2.321-0.036-3.414-2.665c-4.092-9.83-6.332-15.417-10.542-24.982
	c-0.906-1.998-2.173-5.679-2.654-5.599c-0.481,0.079-0.407,1.062-0.327,1.539c1.822,11.114,3.337,20.374,5.265,32.131
	c0.212,1.29-0.165,1.517-2.338,1.87c-2.336,0.383-2.686,0.274-2.895-1.014c-3.302-20.127-5.739-35.023-8.866-54.109
	c-0.133-0.805,0.432-0.897,1.88-1.135c2.254-0.371,2.896,0.02,4.201,2.95c4.134,9.575,6.824,15.911,10.959,25.488
	C24.218,77.455,24.74,78.609,25.143,78.544"/>
<path d="M57.873,88.559c0.829,5.073-1.288,9.802-7.81,10.869c-6.521,1.07-10.211-3.782-10.859-7.727
	c-2.361-14.414-4.617-28.184-7.519-45.899c-0.174-1.046,0.686-1.352,2.376-1.631c1.693-0.274,2.711-0.11,2.857,0.772
	c2.86,17.476,5.208,31.811,7.455,45.499c0.354,2.174,1.904,4.072,4.803,3.592c2.738-0.445,3.778-2.686,3.421-4.858
	c-2.165-13.205-4.71-28.748-7.505-45.815c-0.122-0.726,0.325-1.05,2.256-1.363c2.011-0.331,2.846-0.304,2.964,0.424
	C53.125,59.571,55.562,74.467,57.873,88.559"/>
<path d="M77.983,38.216c3.127,19.086,5.504,33.578,8.802,53.708c0.209,1.287-0.005,1.49-2.419,1.885
	c-2.096,0.342-2.604,0.262-2.815-1.027c-1.678-10.225-2.933-17.874-4.605-28.101c-0.514-3.14-1.347-8.215-1.908-8.121
	c-0.565,0.093-0.662,1.019-0.744,1.523c-0.416,4.536-0.702,6.814-1.223,11.2c-0.069,0.591-0.044,1.248-0.932,1.394
	c-0.721,0.116-1.069-0.484-1.311-0.944c-1.584-3.625-2.72-6.004-4.561-10.166c-0.251-0.539-0.692-1.207-1.335-1.104
	c-0.486,0.076,0.397,4.977,0.902,8.037c1.674,10.227,2.927,17.877,4.601,28.103c0.214,1.29-0.243,1.53-2.336,1.874
	c-2.253,0.367-2.684,0.271-2.893-1.017c-3.3-20.129-5.679-34.624-8.799-53.708c-0.214-1.286,0.536-1.247,2.064-1.498
	c1.775-0.289,2.162,0.061,4.11,3.876c2.441,4.809,4.256,8.317,6.325,12.36c0.226,0.373,0.626,0.805,1.113,0.725
	c0.4-0.064,0.724-0.615,0.822-1.043c0.853-5.35,1.227-8.142,2.045-13.732c0.578-4.063,0.632-4.731,2.404-5.021
	C77.061,37.128,77.783,37.008,77.983,38.216"/>
<path d="M90.562,80.835c-2.192-13.386-3.582-21.863-5.772-35.25c-0.121-0.728-0.074-0.793,0.189-1.292
	c0.261-0.498,0.652-0.563,1.212-0.659c3.066-0.5,6.188-1.01,9.254-1.516c0.67-0.108,0.782,0.559,0.945,1.566
	c0.174,1.06,0.247,1.503-0.477,1.62c-1.507,0.25-4.521,0.743-5.575,0.918c-0.451,0.072-1.109,0.238-1.239,0.488
	c-0.217,0.437-0.227,0.381-0.105,1.105c0.611,3.736,1.121,6.861,1.735,10.6c0.082,0.499,0.069,1.134,0.573,1.393
	c0.433,0.216,0.816,0.097,1.263,0.024c0.949-0.157,2.121-0.348,2.621-0.432c0.67-0.11,0.856,0.322,1.045,1.491
	c0.184,1.114,0.199,1.568-0.524,1.688c-0.443,0.075-1.506,0.246-2.509,0.412c-0.561,0.092-1.16,0.246-1.367,0.396
	c-0.449,0.416-0.244,0.954-0.125,1.681c0.731,4.462,1.23,7.529,1.965,11.992c0.116,0.728,0.293,1.785,0.598,1.908
	c0.307,0.118,1.097,0.05,1.706-0.053c1.507-0.25,3.797-0.619,5.301-0.865c0.671-0.113,0.782,0.212,0.98,1.439
	c0.202,1.229,0.204,1.571-0.411,1.673c-2.4,0.391-5.97,0.974-8.368,1.37c-0.892,0.146-1.822,0.412-2.267,0.141
	C90.696,82.36,90.672,81.503,90.562,80.835"/>
<path d="M90.961,35.006c1.011-0.793,1.543-1.056,1.921-0.486c0.379,0.567,0.548,0.885,1.014,1.265
	c0.658,0.525-0.111,1.449-0.305,1.657c-2.43,1.943-2.376,1.933-5.4,4.433C87.279,42.6,87,42.3,86.808,41.815
	c-0.261-0.528-0.613-0.931-0.984-1.443c-0.414-0.445,0.228-1.409,1.458-2.299C88.696,36.926,89.499,36.221,90.961,35.006"/>
<path d="M123.529,86.248c-0.994-6.059-1.85-11.279-2.84-17.342c-0.277-1.672-0.378-2.729-1.486-4.262
	c-1.391-1.917-3.754-1.958-3.799-2.235c-0.044-0.281,2.092-1.204,2.816-3.325c0.583-1.67,0.32-2.84,0.047-4.512
	c-0.169-1.034-0.312-1.908-0.451-2.762l-4.583,0.404c0.177,1.074,0.352,2.138,0.566,3.449c0.159,0.977,0.353,2.158-0.788,3.92
	c-1.039,1.525-2.813,2.031-3.582,2.156c-0.346,0.058-0.822,0.205-1.297-0.069c-0.627-0.33-0.615-1.115-0.74-1.885
	c-0.432-2.636-0.78-4.767-1.139-6.957l-4.58,0.403c1.953,11.923,3.641,22.219,5.858,35.778c0.163,0.978,0.651,0.897,2.251,0.631
	c2.088-0.342,2.371-0.387,2.184-1.502c-1.229-7.52-2.394-14.624-3.456-21.098c-0.184-1.115,0.25-1.112,3.521-1.649
	c1.53-0.251,3.7,1.185,4.168,4.037c0.91,5.569,1.882,11.491,2.896,17.689c0.173,1.043,0.646,0.894,2.248,0.632
	C123.223,87.44,123.709,87.361,123.529,86.248z"/>
<path d="M105.26,46.764c-0.068-0.419-0.123-0.767,0.014-1.222c0.203-0.53,0.828-0.635,1.453-0.734
	c2.509-0.411,2.983-0.129,3.862,0.437c1.394,1.063,1.866,2.201,2.124,3.8c0.196,1.197,0.359,2.187,0.521,3.168l4.583-0.404
	c-0.18-1.103-0.355-2.172-0.574-3.505c-0.402-2.437-1.357-5.216-3.765-6.817c-2.396-1.54-5.483-1.607-7.708-1.245
	c-1.464,0.239-2.511,0.412-3.975,0.652c-0.557,0.092-1.075-0.038-1.554,0.54c-0.352,0.486-0.292,1.267-0.177,1.96
	c0.565,3.454,1.097,6.699,1.61,9.837l4.58-0.403C105.95,50.968,105.639,49.065,105.26,46.764z"/>
<path d="M126.723,42.887c0.428,1.721,0.57,3.055-2.238,3.802c-1.719,0.423-3.406-1.16-3.494-3.004
	c-0.113-1.553,0.064-3.083,2.456-3.333C125.061,40.157,126.392,41.299,126.723,42.887"/>
<path d="M130.814,86.199c-1.949,0.318-2.087,0.34-2.27-0.774c-1.859-11.351-3.355-20.474-5.124-31.269
	c-0.173-1.044,0.306-1.195,1.904-1.457c1.813-0.297,2.358-0.457,2.562,0.797c1.758,10.725,3.242,19.779,5.092,31.061
	C133.185,85.81,133.043,85.832,130.814,86.199"/>
<path d="M135.989,44.017c-0.32-1.951,0.777-4.419,2.868-4.758c2.02-0.333,3.846,1.655,4.166,3.608
	c1.001,6.112,2.073,12.66,3.134,19.133h4.719c-1.104-6.742-2.169-13.246-3.256-19.887c-0.803-4.879-4.876-7.927-9.472-7.175
	c-4.522,0.743-7.541,4.597-6.687,9.819c0.948,5.788,1.873,11.432,2.825,17.243h4.648C137.934,55.888,136.925,49.727,135.989,44.017z
	"/>
<path d="M152.414,87.092c-1.67,0.274-3.802-0.947-4.234-3.596c0,0-0.117-0.269,0.613-0.6c2.129-0.994,4.989-3.18,3.992-9.238
	c-0.656-4.009-1.289-7.87-1.909-11.658h-4.719c0.69,4.217,1.376,8.401,2.033,12.412c0.468,2.855-0.626,4.46-2.784,4.814
	c-2.088,0.349-3.781-0.808-4.247-3.666c-0.714-4.346-1.467-8.939-2.224-13.561h-4.648c0.755,4.607,1.526,9.317,2.345,14.307
	c1.026,6.266,5.446,7.046,6.221,7.417c0.312,0.162,0.729,0.095,0.8,0.515c0.865,5.289,4.942,7.912,9.472,7.172
	c0.417-0.068,0.198-0.963-0.011-2.218C152.912,87.939,152.762,87.035,152.414,87.092z"/>
<path d="M173.922,70.84c0.721,4.387-1.115,8.477-6.754,9.402c-5.642,0.924-8.832-3.278-9.391-6.685
	c-2.045-12.469-3.993-24.375-6.504-39.699c-0.148-0.903,0.594-1.167,2.054-1.409c1.464-0.237,2.346-0.097,2.473,0.668
	c2.476,15.109,4.508,27.509,6.446,39.345c0.308,1.883,1.646,3.521,4.156,3.111c2.368-0.385,3.267-2.324,2.959-4.201
	c-1.868-11.422-4.074-24.865-6.496-39.628c-0.1-0.625,0.283-0.905,1.954-1.175c1.744-0.288,2.46-0.263,2.564,0.366
	C169.814,45.771,171.928,58.651,173.922,70.84"/>
<path d="M180.035,75.415c-2.736-16.712-4.473-27.299-7.21-44.017c-0.151-0.903-0.089-0.982,0.235-1.608
	c0.326-0.627,0.814-0.708,1.509-0.821c3.829-0.625,7.733-1.263,11.563-1.892c0.835-0.138,0.97,0.696,1.176,1.949
	c0.22,1.325,0.313,1.882-0.599,2.032c-1.878,0.307-5.639,0.924-6.961,1.14c-0.557,0.092-1.385,0.299-1.544,0.611
	c-0.27,0.543-0.28,0.475-0.133,1.38c0.765,4.664,1.402,8.566,2.169,13.23c0.102,0.629,0.088,1.417,0.713,1.739
	c0.546,0.272,1.022,0.123,1.579,0.031c1.181-0.193,2.646-0.434,3.272-0.537c0.835-0.135,1.064,0.399,1.306,1.861
	c0.229,1.393,0.25,1.961-0.656,2.11c-0.554,0.092-1.879,0.307-3.131,0.513c-0.698,0.113-1.452,0.307-1.704,0.498
	c-0.563,0.517-0.311,1.19-0.162,2.099c0.912,5.57,1.539,9.398,2.454,14.968c0.147,0.907,0.363,2.23,0.747,2.383
	c0.383,0.151,1.368,0.062,2.137-0.066c1.879-0.303,4.732-0.772,6.615-1.082c0.833-0.135,0.973,0.269,1.225,1.801
	c0.249,1.532,0.247,1.963-0.518,2.089c-2.994,0.49-7.452,1.221-10.447,1.71c-1.111,0.184-2.276,0.516-2.83,0.178
	C180.203,77.32,180.17,76.252,180.035,75.415"/>
<path d="M102.001,17.141c-0.024-0.184-0.044-0.34,0.021-0.537c0.095-0.231,0.588-0.297,0.958-0.347
	c0.683-0.09,1.103,0.008,1.482,0.274c0.6,0.486,0.795,0.996,0.889,1.702c0.019,0.14,0.034,0.259,0.052,0.392h2.04
	c-0.028-0.209-0.057-0.425-0.088-0.658c-0.174-1.294-0.529-2.315-1.57-3.056c-1.037-0.711-2.338-0.789-3.385-0.649
	c-0.678,0.09-1.171,0.156-1.85,0.246c-0.249,0.032-0.466,0.028-0.687,0.281c-0.161,0.208-0.152,0.489-0.112,0.796
	c0.141,1.054,0.275,2.058,0.406,3.039h2.041C102.136,18.156,102.071,17.671,102.001,17.141z"/>
<path d="M107.891,21.979c-0.173-1.311-0.29-2.179-0.447-3.354h-2.04c0.171,1.298,0.305,2.281,0.486,3.654
	c0.089,0.646,0.132,0.956-0.398,1.716c-0.475,0.66-1.147,0.811-1.517,0.862c-0.278,0.036-0.553,0.104-0.716,0.031
	c-0.3-0.117-0.296-0.526-0.34-0.866c-0.271-2.044-0.473-3.543-0.721-5.397h-2.041c0.783,5.86,1.428,10.673,2.294,17.173
	c0.059,0.432,0.184,0.412,0.988,0.311c0.829-0.11,1.046-0.138,0.982-0.632c-0.363-2.717-0.756-5.645-1.046-7.808
	c-0.057-0.432,0.131-0.679,0.501-0.726c0.957-0.126,2.417-0.478,3.311-1.792C108.127,23.708,107.989,22.691,107.891,21.979z"/>
<path d="M111.298,20.428c-0.011-0.091-0.011-0.312,0.144-0.333c0.184-0.021,0.242,0.189,0.263,0.312
	c0.377,1.788,0.649,3.178,0.999,4.844h2.056c-0.962-3.686-1.868-7.179-3.093-11.686c-0.131-0.516-0.379-0.514-1.154-0.41
	c-0.679,0.088-0.83,0.141-0.833,0.581c0.036,3.972,0.039,7.63,0.055,11.515h1.881C111.517,23.777,111.405,22.209,111.298,20.428z"/>
<path d="M117.066,33.985c-0.892-3.317-1.613-6.076-2.308-8.735h-2.056c0.123,0.583,0.254,1.199,0.403,1.88
	c0.063,0.245-0.278,0.289-0.647,0.337c-0.434,0.058-0.723,0.033-0.716-0.188c-0.038-0.658-0.082-1.336-0.129-2.029h-1.881
	c0.012,3.017,0.032,6.166,0.084,9.727c0.007,0.284,0.409,0.229,0.871,0.167c0.987-0.13,1.271-0.135,1.255-0.479
	c-0.083-1.812-0.131-3.345-0.18-5.098c-0.009-0.312,0.301-0.319,0.89-0.399c0.497-0.062,0.924-0.153,0.997,0.151
	c0.47,1.665,0.862,3.183,1.342,4.877c0.117,0.426,0.266,0.342,1.159,0.222C116.986,34.311,117.143,34.32,117.066,33.985z"/>
<path d="M118.137,15c-0.021-0.186-0.044-0.341,0.026-0.539c0.093-0.232,0.371-0.27,0.649-0.306c1.11-0.147,1.316-0.018,1.699,0.245
	c0.594,0.488,0.792,0.994,0.885,1.704c0.109,0.825,0.19,1.433,0.287,2.146h2.042c-0.114-0.846-0.198-1.491-0.321-2.411
	c-0.145-1.081-0.529-2.317-1.57-3.058c-1.04-0.709-2.4-0.782-3.383-0.649c-0.65,0.085-1.115,0.146-1.763,0.233
	c-0.245,0.031-0.475-0.033-0.694,0.215c-0.158,0.211-0.148,0.556-0.104,0.862c0.227,1.697,0.438,3.277,0.642,4.808h2.042
	C118.439,17.24,118.308,16.251,118.137,15z"/>
<path d="M125.684,32.65c-0.359-2.682-0.666-4.998-1.027-7.68c-0.1-0.744-0.135-1.21-0.601-1.902
	c-0.586-0.862-1.63-0.913-1.644-1.038c-0.018-0.123,0.933-0.501,1.283-1.425c0.28-0.729,0.179-1.249,0.08-1.989
	c-0.018-0.132-0.033-0.245-0.05-0.366h-2.042c0.032,0.245,0.067,0.502,0.105,0.786c0.06,0.434,0.129,0.956-0.398,1.718
	c-0.479,0.662-1.27,0.857-1.606,0.901c-0.154,0.025-0.362,0.084-0.569-0.047c-0.276-0.153-0.262-0.5-0.305-0.841
	c-0.126-0.941-0.231-1.736-0.336-2.518h-2.042c0.681,5.094,1.278,9.571,2.06,15.407c0.06,0.434,0.273,0.404,0.985,0.31
	c0.927-0.123,1.048-0.143,0.982-0.634c-0.446-3.334-0.866-6.481-1.246-9.35c-0.071-0.496,0.122-0.488,1.571-0.68
	c0.678-0.092,1.616,0.57,1.783,1.834c0.332,2.468,0.684,5.091,1.049,7.837c0.063,0.463,0.273,0.406,0.984,0.311
	C125.531,33.172,125.746,33.147,125.684,32.65z"/>
<path d="M127.561,14.533c0.592,4.382,1.319,9.842,1.914,14.288c0.115,0.863,0.655,1.637,1.798,1.487
	c1.051-0.139,1.411-0.974,1.3-1.808c-0.079-0.582-0.165-1.23-0.242-1.818c-0.035-0.246,0.365-0.302,0.921-0.373
	c0.739-0.096,1.104-0.209,1.146,0.098c0.08,0.618,0.172,1.298,0.252,1.882c0.259,1.944-0.567,3.751-3.098,4.086
	c-2.408,0.32-3.839-1.47-4.057-3.106c-0.625-4.658-1.299-9.688-1.924-14.379c-0.225-1.666,0.685-3.797,3.092-4.118
	c2.562-0.338,3.891,1.84,4.067,3.168c0.054,0.399,0.124,0.925,0.188,1.386c0.036,0.311-0.419,0.401-0.978,0.477
	c-0.614,0.082-1.043,0.167-1.092-0.199c-0.06-0.432-0.135-1.02-0.194-1.45c-0.089-0.681-0.808-1.591-1.731-1.468
	C127.961,12.815,127.467,13.824,127.561,14.533"/>
<path d="M136.447,13.572c-0.115-0.864,0.402-1.937,1.326-2.058c0.893-0.122,1.676,0.78,1.791,1.644
	c0.247,1.849,0.505,3.777,0.765,5.716h2.072c-0.268-2.007-0.534-4.013-0.8-5.987c-0.289-2.16-2.047-3.559-4.082-3.29
	c-2.005,0.268-3.388,1.928-3.08,4.242c0.224,1.661,0.449,3.35,0.675,5.035h2.042C136.916,17.07,136.676,15.279,136.447,13.572z"/>
<path d="M142.401,18.875h-2.072c0.368,2.751,0.739,5.528,1.093,8.171c0.114,0.859-0.056,1.92-1.289,2.084
	c-1.393,0.188-1.706-0.775-1.829-1.672c-0.368-2.755-0.761-5.691-1.147-8.583h-2.042c0.398,2.977,0.798,5.967,1.198,8.943
	c0.267,2.007,1.529,3.722,4.092,3.382c2.751-0.365,3.33-2.328,3.066-4.333C143.113,24.21,142.757,21.538,142.401,18.875z"/>
<path d="M152.828,25.906c0.26,1.945-0.604,3.725-3.103,4.06c-2.501,0.329-3.853-1.563-4.055-3.074
	c-0.739-5.528-1.44-10.804-2.353-17.593c-0.051-0.401,0.281-0.508,0.926-0.595c0.648-0.084,1.037-0.011,1.078,0.328
	c0.896,6.694,1.631,12.191,2.336,17.436c0.11,0.833,0.682,1.575,1.791,1.425c1.049-0.139,1.471-0.98,1.359-1.813
	c-0.677-5.059-1.473-11.016-2.344-17.557c-0.042-0.283,0.133-0.396,0.877-0.495c0.766-0.104,1.084-0.08,1.121,0.197
	C151.342,14.797,152.104,20.508,152.828,25.906"/>
<path d="M162.65,27.744c-0.357-2.685-0.667-5.001-1.027-7.687c-0.099-0.739-0.127-1.205-0.598-1.898
	c-0.587-0.864-1.629-0.913-1.646-1.038c-0.019-0.122,0.938-0.501,1.284-1.425c0.276-0.713,0.182-1.229,0.086-1.946h-2.04
	c0.017,0.125,0.033,0.241,0.052,0.377c0.053,0.432,0.123,0.958-0.402,1.716c-0.477,0.664-1.268,0.862-1.605,0.905
	c-0.156,0.023-0.366,0.079-0.572-0.049c-0.273-0.151-0.258-0.499-0.299-0.837c-0.106-0.78-0.197-1.458-0.285-2.112h-2.041
	c0.658,4.927,1.245,9.314,2.008,14.998c0.053,0.432,0.271,0.404,0.978,0.311c0.926-0.125,1.052-0.141,0.987-0.635
	c-0.443-3.329-0.865-6.481-1.252-9.349c-0.063-0.498,0.123-0.486,1.578-0.68c0.679-0.092,1.609,0.57,1.785,1.834
	c0.325,2.469,0.678,5.092,1.045,7.839c0.061,0.463,0.271,0.401,0.984,0.309C162.502,28.267,162.72,28.238,162.65,27.744z"/>
<path d="M155.109,10.089c-0.024-0.184-0.045-0.338,0.023-0.537c0.094-0.231,0.371-0.269,0.648-0.302
	c1.11-0.15,1.319-0.023,1.699,0.243c0.599,0.486,0.793,0.994,0.886,1.703c0.13,0.977,0.22,1.656,0.344,2.554h2.04
	c-0.002-0.015-0.004-0.028-0.006-0.043c-0.141-1.048-0.231-1.728-0.371-2.779c-0.145-1.081-0.531-2.317-1.571-3.056
	c-1.04-0.711-2.396-0.782-3.386-0.65c-0.648,0.086-1.111,0.149-1.754,0.233c-0.251,0.033-0.48-0.031-0.695,0.218
	c-0.161,0.21-0.148,0.556-0.105,0.861c0.246,1.846,0.475,3.562,0.695,5.216h2.041C155.441,12.591,155.299,11.51,155.109,10.089z"/>
<path d="M162.145,10.066c-0.22-1.603,0.463-3.8,3.025-4.14c2.344-0.312,3.793,1.601,4.004,3.176c0.023,0.182,0.162,1.235,0.193,1.42
	c0.029,0.247-0.339,0.296-1.054,0.388c-0.583,0.079-0.987,0.131-1.024-0.145c-0.021-0.184-0.173-1.295-0.192-1.452
	c-0.136-1.02-0.995-1.565-1.672-1.474c-0.864,0.117-1.399,1.063-1.294,1.838c0.099,0.743,0.161,1.204,0.225,1.695
	c0.156,1.171,1.572,2.588,2.963,4.068c1.61,1.7,3.351,3.669,3.66,5.983c0.078,0.587,0.165,1.266,0.27,2.038
	c0.285,2.097-1.092,3.785-3.102,4.055c-2.004,0.263-3.731-0.668-4.061-3.106c-0.013-0.125-0.213-1.603-0.226-1.726
	c-0.044-0.339,0.159-0.432,0.962-0.537c0.742-0.1,1.055-0.11,1.096,0.198c0.027,0.187,0.205,1.511,0.227,1.698
	c0.104,0.773,0.614,1.55,1.727,1.408c1.328-0.179,1.443-1.199,1.347-1.91c-0.097-0.739-0.181-1.356-0.251-1.882
	c-0.221-1.632-1.656-3.204-3.118-4.768c-1.541-1.647-3.255-3.431-3.498-5.254C162.283,11.146,162.227,10.716,162.145,10.066"/>
</svg>
