<?xml version="1.0" encoding="utf-8"?>
<!-- Generator: Adobe Illustrator 14.0.0, SVG Export Plug-In . SVG Version: 6.00 Build 43363)  -->
<!DOCTYPE svg PUBLIC "-//W3C//DTD SVG 1.1 Basic//EN" "http://www.w3.org/Graphics/SVG/1.1/DTD/svg11-basic.dtd">
<svg version="1.1" baseProfile="basic" id="Layer_1"
	 xmlns="http://www.w3.org/2000/svg" xmlns:xlink="http://www.w3.org/1999/xlink" x="0px" y="0px" width="300px" height="300px"
	 viewBox="0 0 300 300" xml:space="preserve">
<path d="M160.479,147l-3,3l22.008,22.008c2.063,2.064,2.063,5.41-0.002,7.479c-1.032,1.033-2.387,1.547-3.738,1.547
	s-2.706-0.514-3.737-1.547L150,157.479l-22.008,22.008c-1.032,1.033-2.386,1.549-3.739,1.549s-2.706-0.516-3.738-1.549
	c-2.065-2.066-2.065-5.412,0-7.479L142.521,150l-3-3H28.759c-0.024,0.997-0.038,1.997-0.038,3
	c0,66.979,54.299,121.279,121.279,121.279c66.98,0,121.279-54.301,121.279-121.279c0-1.003-0.014-2.003-0.038-3H160.479z"/>
</svg>
