<?xml version="1.0" encoding="utf-8"?>
<!-- Generator: Adobe Illustrator 14.0.0, SVG Export Plug-In . SVG Version: 6.00 Build 43363)  -->
<!DOCTYPE svg PUBLIC "-//W3C//DTD SVG 1.1 Basic//EN" "http://www.w3.org/Graphics/SVG/1.1/DTD/svg11-basic.dtd">
<svg version="1.1" baseProfile="basic" id="Layer_1"
	 xmlns="http://www.w3.org/2000/svg" xmlns:xlink="http://www.w3.org/1999/xlink" x="0px" y="0px" width="600px" height="200px"
	 viewBox="0 0 600 200" xml:space="preserve">
<path d="M540.576,43.033c-4.558,0-8.287,3.729-8.287,8.287v2.389c0,4.559-3.729,8.288-8.287,8.288h-6.911
	c-4.558,0-8.287,2.454-8.287,5.451c0,2.998-3.729,5.452-8.287,5.452H44.244c-4.558,0-8.287,3.729-8.287,8.287v37.61
	c0,4.558,3.729,8.287,8.287,8.287h456.273c4.558,0,8.287,2.453,8.287,5.451c0,3.001,3.729,5.454,8.287,5.454h6.911
	c4.558,0,8.287,3.729,8.287,8.287v2.39c0,4.558,3.729,8.287,8.287,8.287h15.205c4.558,0,8.287-3.729,8.287-8.287V51.32
	c0-4.558-3.729-8.287-8.287-8.287H540.576z"/>
</svg>
