<?xml version="1.0" encoding="utf-8"?>
<!-- Generator: Adobe Illustrator 14.0.0, SVG Export Plug-In . SVG Version: 6.00 Build 43363)  -->
<!DOCTYPE svg PUBLIC "-//W3C//DTD SVG 1.1 Basic//EN" "http://www.w3.org/Graphics/SVG/1.1/DTD/svg11-basic.dtd">
<svg version="1.1" baseProfile="basic" id="Layer_1"
	 xmlns="http://www.w3.org/2000/svg" xmlns:xlink="http://www.w3.org/1999/xlink" x="0px" y="0px" width="400px" height="150px"
	 viewBox="0 0 400 150" xml:space="preserve">
		<path d="M359.761,135.004c-7.177,0-13.929-2.795-19.01-7.869C303.116,89.498,253.132,68.774,200,68.774
			c-53.13,0-103.115,20.724-140.746,58.356c-5.081,5.078-11.833,7.874-19.014,7.874c-7.182,0-13.934-2.796-19.013-7.873
			C10.743,116.643,10.744,99.583,21.225,89.1C69.013,41.313,132.502,14.996,200,14.996c67.496,0,130.986,26.317,178.775,74.104
			c10.48,10.487,10.479,27.547-0.003,38.029C373.692,132.208,366.941,135.004,359.761,135.004L359.761,135.004z"/>
</svg>
