<?xml version="1.0" encoding="utf-8"?>
<!-- Generator: Adobe Illustrator 14.0.0, SVG Export Plug-In . SVG Version: 6.00 Build 43363)  -->
<!DOCTYPE svg PUBLIC "-//W3C//DTD SVG 1.1 Basic//EN" "http://www.w3.org/Graphics/SVG/1.1/DTD/svg11-basic.dtd">
<svg version="1.1" baseProfile="basic" id="Layer_1"
	 xmlns="http://www.w3.org/2000/svg" xmlns:xlink="http://www.w3.org/1999/xlink" x="0px" y="0px" width="400px" height="150px"
	 viewBox="0 0 400 150" xml:space="preserve">
<g>
	<g>
		<path d="M364.629,131.221c-5.925,0-11.495-2.307-15.686-6.496c-39.72-39.72-92.614-61.593-148.945-61.593
			c-56.33,0-109.225,21.874-148.941,61.591c-4.19,4.189-9.761,6.497-15.686,6.497c-5.925,0-11.496-2.308-15.687-6.499
			c-4.189-4.188-6.497-9.758-6.497-15.684s2.308-11.496,6.497-15.686c48.09-48.088,112.127-74.573,180.314-74.573
			c68.188,0,132.225,26.484,180.314,74.575c4.189,4.188,6.499,9.758,6.499,15.686c0,5.927-2.31,11.498-6.502,15.688
			C376.119,128.914,370.55,131.221,364.629,131.221L364.629,131.221z"/>
	</g>
</g>
</svg>
