<?xml version="1.0" encoding="utf-8"?>
<!-- Generator: Adobe Illustrator 14.0.0, SVG Export Plug-In . SVG Version: 6.00 Build 43363)  -->
<!DOCTYPE svg PUBLIC "-//W3C//DTD SVG 1.1 Basic//EN" "http://www.w3.org/Graphics/SVG/1.1/DTD/svg11-basic.dtd">
<svg version="1.1" baseProfile="basic" id="Layer_1"
	 xmlns="http://www.w3.org/2000/svg" xmlns:xlink="http://www.w3.org/1999/xlink" x="0px" y="0px" width="300px" height="300px"
	 viewBox="0 0 300 300" xml:space="preserve">
<path d="M124.472,13.433c-1.791,0-3.237,1.448-3.237,3.237v104.562H16.67c-1.79,0-3.238,1.448-3.238,3.235v51.063
	c0,1.787,1.448,3.236,3.238,3.236h104.564v104.566c0,1.783,1.446,3.234,3.237,3.234h51.06c1.787,0,3.234-1.451,3.234-3.234V178.766
	h104.566c1.787,0,3.234-1.449,3.234-3.236v-51.063c0-1.787-1.447-3.235-3.234-3.235H178.768V16.67c0-1.789-1.449-3.237-3.235-3.237
	H124.472z"/>
</svg>
