<?xml version="1.0" encoding="utf-8"?>
<!-- Generator: Adobe Illustrator 14.0.0, SVG Export Plug-In . SVG Version: 6.00 Build 43363)  -->
<!DOCTYPE svg PUBLIC "-//W3C//DTD SVG 1.1//EN" "http://www.w3.org/Graphics/SVG/1.1/DTD/svg11.dtd">
<svg version="1.1" id="Layer_1" xmlns="http://www.w3.org/2000/svg" xmlns:xlink="http://www.w3.org/1999/xlink" x="0px" y="0px"
	 width="300px" height="300px" viewBox="0 0 300 300" enable-background="new 0 0 300 300" xml:space="preserve">
<path d="M124.471,296.566c-7.299,0-13.237-5.937-13.237-13.234v-94.566H16.67c-7.299,0-13.238-5.938-13.238-13.236v-51.063
	c0-7.298,5.938-13.235,13.238-13.235h94.565V16.67c0-7.299,5.938-13.237,13.237-13.237h51.061c7.298,0,13.234,5.938,13.234,13.237
	v94.562h94.563c7.297,0,13.233,5.937,13.233,13.235v51.063c0,7.299-5.937,13.236-13.233,13.236h-94.565v94.566
	c0,7.298-5.937,13.234-13.234,13.234H124.471z"/>
</svg>
